<svg xmlns="http://www.w3.org/2000/svg" viewBox="0 0 140 180" fill="none">
  <path
    fill="#ffffff"
    d="M8 4h124v172H8V4zm0 0H4v8h4V4zm132 0h-4v8h4V4zM4 172v8h4v-4H4zm132 4h-4v4h4v-4zM4 4V0h8v4H4zm128-4v4h8V0h-8zM0 8h4V4H0v4zm0 164h4v4H0v-4zm136 4h4v-4h-4v4zM0 168h4v-4H0v4zM12 0h4v4h-4V0zm16 0h4v4h-4V0zm16 0h4v4h-4V0zm16 0h4v4h-4V0zm16 0h4v4h-4V0zm16 0h4v4h-4V0zm16 0h4v4h-4V0zm12 176h4v4h-4v-4zm16 0h4v4h-4v-4zm16 0h4v4h-4v-4zm16 0h4v4h-4v-4zm16 0h4v4h-4v-4zm16 0h4v4h-4v-4zm16 0h4v4h-4v-4zM0 12v4H0v-4zm0 16v4H0v-4zm0 16v4H0v-4zm0 16v4H0v-4zm0 16v4H0v-4zm0 16v4H0v-4zm0 16v4H0v-4zm0 16v4H0v-4zm136-164v4h4v-4h-4zm0 16v4h4v-4h-4zm0 16v4h4v-4h-4zm0 16v4h4v-4h-4zm0 16v4h4v-4h-4zm0 16v4h4v-4h-4zm0 16v4h4v-4h-4zm0 16v4h4v-4h-4z"
  />
</svg>
